# xmcd
#
# Track frame offsets:
#	150
#	16331
#	35795
#	51595
#	65987
#	81816
#	96741
#	115377
#	127292
#	142541
#	150174
#	169389
#	177407
#	193008
#	203309
#	222074
#
# Disc length: 3222 seconds
#
# Revision: 2
# Processed by: cddbd v1.5.2PL0 Copyright (c) Steve Scherf et al.
# Submitted via: audiograbber 1.83.01
#
DISCID=ec0c9410
DTITLE=циыта цяиба - ека ма акканоуле йаядиес CD1
DYEAR=2015
DGENRE=дглотийа
TTITLE0=еида латиа викиа дуо
TTITLE1=апоье гяхе ма ле деи
TTITLE2=бяе йаядиа ти пас ма йамеис
TTITLE3=ти та хес ти та цуяеуеис
TTITLE4=апоье поу се еида
TTITLE5=циаселайи лоу
TTITLE6=ека м' акканоуле йаядиес
TTITLE7=лиа ацапг ап' та пакиа
TTITLE8=х' акканы цеитомиа - нупма пеядийиолата лоу
TTITLE9=цяаллата соу стекмы
TTITLE10=пеяаслема неваслема
TTITLE11=дуо жикайиа
TTITLE12=еилаи памтяелемг
TTITLE13=акка латиа лгм йоитас
TTITLE14=циа та дуо соу латиа
TTITLE15=та немувтиа тгс фыгс лоу
EXTD=
EXTT0=
EXTT1=
EXTT2=
EXTT3=
EXTT4=
EXTT5=
EXTT6=
EXTT7=
EXTT8=
EXTT9=
EXTT10=
EXTT11=
EXTT12=
EXTT13=
EXTT14=
EXTT15=
PLAYORDER=
